<svg xmlns="http://www.w3.org/2000/svg" width="777.201" height="66.094" viewBox="0 0 777.201 66.094">
  <g id="watch-larger" transform="translate(-64 -681.801)">
    <text id="WATCH_OUR_LATEST_SHOW_CASE" data-name="WATCH OUR LATEST SHOW CASE" transform="translate(194.201 727)" fill="#b79370" font-size="34" font-family="Poppins-Light, Poppins" font-weight="300" letter-spacing="0.154em"><tspan x="0" y="0">WATCH OUR LATEST SHOW CASE</tspan></text>
    <path id="youtube-brands" d="M106.969,74.341a11.811,11.811,0,0,0-8.311-8.364C91.328,64,61.933,64,61.933,64s-29.394,0-36.725,1.977A11.812,11.812,0,0,0,16.9,74.341c-1.964,7.378-1.964,22.772-1.964,22.772s0,15.394,1.964,22.772a11.635,11.635,0,0,0,8.311,8.231c7.331,1.977,36.725,1.977,36.725,1.977s29.395,0,36.725-1.977a11.635,11.635,0,0,0,8.311-8.231c1.964-7.378,1.964-22.772,1.964-22.772S108.933,81.72,106.969,74.341ZM52.319,111.09V83.137L76.887,97.114Z" transform="translate(49.067 617.801)" fill="#b79370"/>
  </g>
</svg>
